<?xml version="1.0" encoding="utf-8"?>
<!-- Generator: Adobe Illustrator 23.1.1, SVG Export Plug-In . SVG Version: 6.00 Build 0)  -->
<svg version="1.1" id="Layer_1" xmlns="http://www.w3.org/2000/svg" xmlns:xlink="http://www.w3.org/1999/xlink" x="0px" y="0px"
	 viewBox="0 0 512 512" style="enable-background:new 0 0 512 512;" xml:space="preserve">
<style type="text/css">
	.st0{fill-rule:evenodd;clip-rule:evenodd;fill:#D4AF37;}
	.st1{fill:#161616;}
</style>
<path class="st0" d="M242.3,472.5l14.2,17.5C456.5,435.4,482,266.3,482,210.6S464.9,96,419.8,35c-34,13.4-108.1,19.3-163.3,0
	c-55.2,19.3-129.3,13.4-163.3,0C48.1,96,31,154.8,31,210.6S56.5,435.4,256.5,490L242.3,472.5z"/>
<g>
	<path class="st1" d="M157.8,293.5h80v13.8H136v-13.8c53.3-40.8,80-74.8,80-102c0-11.3-3.2-20-9.6-25.9c-6.4-5.9-15-8.9-25.9-8.9
		c-12.5,0-25.3,4.8-38.5,14.5v-15.5c11.3-9,24.3-13.5,39-13.5c14,0,26,4.2,36,12.6c10,8.4,15,20.4,15,35.9
		C232,219.7,207.3,254,157.8,293.5z"/>
	<path class="st1" d="M275.7,286.1c-10.3-15.4-15.5-35.8-15.5-61.1c0-25.3,5.2-45.5,15.8-60.4c10.5-14.9,23.9-22.4,40.2-22.4
		c17,0,30.8,7.4,41.4,22.2c10.6,14.8,15.9,35,15.9,60.5c0,25.3-5,45.7-15,61.1c-10,15.4-24.1,23.1-42.2,23.1
		C299.6,309.2,286.1,301.5,275.7,286.1z M276,225c0,21.7,3.9,38.6,11.8,50.9c7.8,12.2,17.3,18.4,28.5,18.4c12.5,0,22.5-6,30.1-18
		c7.6-12,11.4-29.1,11.4-51.2c0-21.8-4-38.6-11.9-50.2c-7.9-11.7-17.8-17.5-29.6-17.5c-10.7,0-20,5.9-28.1,17.8
		C280,186.8,276,203.5,276,225z"/>
</g>
<g>
	<path class="st1" d="M361.6,307.9l13.2-29.1h2.2l-13.2,29.1H361.6z"/>
	<path class="st1" d="M380.9,286v3c1-2.2,2.7-3.3,5.1-3.3c2.9,0,4.7,1.2,5.4,3.6c1.1-2.4,2.9-3.6,5.4-3.6c1.9,0,3.3,0.5,4.3,1.6
		c0.9,1.1,1.4,2.5,1.4,4.2v12.7h-2.2v-12.1c0-2.9-1.3-4.4-3.8-4.4c-1.2,0-2.4,0.6-3.3,1.7c-1,1.2-1.5,2.7-1.5,4.6v10.1h-2.2v-12.1
		c0-2.9-1.3-4.4-3.8-4.4c-1.2,0-2.4,0.6-3.3,1.7c-1,1.2-1.5,2.7-1.5,4.6v10.1h-2.2V286H380.9z"/>
	<path class="st1" d="M415,304.6c-2.6,0-4.6-0.9-6.1-2.7c-1.5-1.8-2.3-4-2.3-6.7c0-2.7,0.8-4.9,2.3-6.7s3.6-2.7,6-2.7
		c2.7,0,4.8,0.9,6.3,2.7c1.5,1.8,2.2,4,2.2,6.8c0,2.7-0.8,5-2.3,6.7C419.8,303.7,417.7,304.6,415,304.6z M415,287.8
		c-1.9,0-3.4,0.7-4.5,2.2c-1.1,1.4-1.6,3.2-1.6,5.2c0,2,0.6,3.7,1.7,5.1c1.1,1.4,2.6,2.1,4.4,2.1c2,0,3.5-0.7,4.6-2.1
		s1.6-3.1,1.6-5.2c0-2.1-0.5-3.9-1.5-5.3C418.7,288.5,417.1,287.8,415,287.8z"/>
</g>
<g>
	<path class="st1" d="M120.8,156.2v6.9c-1.6-1.1-3.7-2-6.3-2.7c-2.6-0.7-5.1-1.1-7.6-1.1c-4.5,0-8,1-10.7,3.1c-2.7,2.1-4,4.9-4,8.4
		c0,1.8,0.4,3.4,1.1,4.9c0.8,1.4,1.9,2.7,3.4,3.7c1.5,1,3,2,4.5,2.8c1.6,0.8,3.4,1.7,5.5,2.6c0.7,0.3,1.3,0.5,1.7,0.7
		c2.5,1.1,4.5,2,6,2.9c1.6,0.9,3.2,2.1,5,3.5c1.7,1.4,3,3.1,3.9,5.1c0.9,2,1.3,4.3,1.3,6.8c0,5.5-1.8,9.9-5.4,12.9
		c-3.6,3.1-8.2,4.8-13.9,5.2v10H100v-10.2c-5.3-0.4-9.9-1.8-14-4.2v-6.9c2,1.5,4.6,2.8,7.8,3.8c3.2,1,6.4,1.5,9.6,1.5
		c4.7,0,8.4-1,11.1-3.1c2.6-2.1,3.9-5,3.9-8.9c0-1.8-0.4-3.4-1.1-4.9c-0.8-1.4-1.9-2.7-3.4-3.7c-1.5-1-3-1.9-4.6-2.7
		c-1.6-0.8-3.5-1.6-5.6-2.6c-0.2-0.1-0.4-0.1-0.5-0.2c-0.1-0.1-0.3-0.1-0.5-0.2c-0.2-0.1-0.4-0.1-0.5-0.2c-2.5-1.1-4.5-2-6.1-2.9
		c-1.6-0.9-3.2-2-5-3.5c-1.8-1.5-3.1-3.2-3.9-5.1c-0.9-2-1.3-4.2-1.3-6.8c0-5.4,1.9-9.7,5.6-12.8c3.7-3.1,8.3-4.9,13.8-5.2v-10.1
		h5.5v10.3C114.7,153.9,118.1,154.8,120.8,156.2z"/>
</g>
</svg>
