<?xml version="1.0" encoding="utf-8"?>
<!-- Generator: Adobe Illustrator 23.0.6, SVG Export Plug-In . SVG Version: 6.00 Build 0)  -->
<svg version="1.1" id="Layer_1" xmlns="http://www.w3.org/2000/svg" xmlns:xlink="http://www.w3.org/1999/xlink" x="0px" y="0px"
	 viewBox="0 0 259.2 43.4" style="enable-background:new 0 0 259.2 43.4;" xml:space="preserve">
<style type="text/css">
	.st0{fill:#4654A3;}
	.st1{fill:#EC2224;}
	.st2{fill:none;}
	.st3{fill:#3D5AA7;}
	.st4{fill:#E92627;}
	.st5{fill:#231F20;}
</style>
<g>
	<path class="st0" d="M67.4,1.3v2.1H62v17.9h-2.4V3.4h-5.4V1.3H67.4z"/>
	<path class="st0" d="M72.5,0.3v8.6c0.9-1.9,2.5-2.8,4.8-2.8c1.4,0,2.6,0.4,3.5,1.3C81.6,8.3,82,9.5,82,11v10.3h-2.3v-9.7
		c0-1.1-0.3-1.9-0.8-2.5c-0.6-0.6-1.3-0.9-2.2-0.9c-1.1,0-2.1,0.4-2.9,1.3c-0.8,0.9-1.2,2.1-1.2,3.7v8.2h-2.3v-21H72.5z"/>
	<path class="st0" d="M97.2,18.4v2.2c-1.2,0.6-2.6,0.9-4.3,0.9c-2.3,0-4.1-0.7-5.5-2.1c-1.4-1.4-2.1-3.2-2.1-5.5
		c0-2.4,0.6-4.3,1.9-5.7C88.4,6.8,90,6.1,92,6.1c1.9,0,3.4,0.6,4.5,1.8s1.7,2.9,1.7,5.1c0,0.6,0,1.2-0.1,1.8H87.7
		c0.2,1.5,0.7,2.6,1.7,3.4c1,0.8,2.2,1.2,3.7,1.2C94.8,19.4,96.1,19,97.2,18.4z M95.8,12.8v-0.6c0-1.2-0.3-2.2-1-3
		c-0.7-0.7-1.6-1.1-2.8-1.1c-1.1,0-2.1,0.4-2.9,1.2c-0.8,0.8-1.3,2-1.4,3.5H95.8z"/>
	<path class="st0" d="M104,6.3v2.6c0.8-1.9,2.2-2.8,4.1-2.8c0.4,0,0.6,0,0.8,0.1v2.3c-0.4-0.1-0.8-0.2-1.3-0.2c-1,0-1.9,0.5-2.6,1.5
		c-0.7,1-1,2.1-1,3.4v8.2h-2.3l0-15.1H104z"/>
	<path class="st0" d="M113.7,6.3v2.4c0.8-1.8,2.2-2.6,4.2-2.6c2.3,0,3.8,1,4.4,2.9c0.4-1,1-1.7,1.8-2.2s1.7-0.8,2.6-0.8
		c1.6,0,2.7,0.4,3.5,1.3c0.8,0.9,1.2,2.1,1.2,3.6v10.3h-2.3v-9.7c0-2.3-1-3.4-2.9-3.4c-1,0-1.8,0.4-2.6,1.3
		c-0.8,0.9-1.1,2.1-1.1,3.6v8.2h-2.3v-9.7c0-2.3-1-3.4-2.9-3.4c-1,0-1.8,0.4-2.6,1.3c-0.8,0.9-1.1,2.1-1.1,3.6v8.2h-2.3V6.3H113.7z"
		/>
	<path class="st0" d="M141.8,21.6c-2.2,0-3.9-0.7-5.1-2.2c-1.3-1.5-1.9-3.3-1.9-5.5c0-2.2,0.6-4.1,1.9-5.6c1.3-1.5,3-2.2,5.1-2.2
		c2.3,0,4,0.7,5.3,2.2c1.2,1.5,1.9,3.3,1.9,5.6c0,2.2-0.6,4.1-1.9,5.6C145.7,20.9,144,21.6,141.8,21.6z M141.8,8.1
		c-1.4,0-2.5,0.6-3.4,1.7c-0.8,1.1-1.2,2.5-1.2,4.1c0,1.6,0.4,2.9,1.2,4c0.8,1.1,1.9,1.6,3.3,1.6c1.5,0,2.7-0.5,3.5-1.6
		c0.8-1.1,1.2-2.4,1.2-4c0-1.7-0.4-3-1.2-4.1C144.5,8.7,143.3,8.1,141.8,8.1z"/>
	<path class="st0" d="M162.9,2v2.5c-1.2-0.8-2.7-1.2-4.3-1.2c-1.2,0-2.2,0.3-2.9,0.8c-0.7,0.6-1.1,1.3-1.1,2.2
		c0,0.5,0.1,0.9,0.3,1.3s0.5,0.7,1,1.1c0.5,0.3,0.9,0.6,1.2,0.7c0.3,0.2,0.9,0.4,1.6,0.7c0.7,0.3,1.2,0.5,1.5,0.7
		c0.4,0.2,0.8,0.4,1.4,0.8c0.6,0.4,1,0.7,1.3,1.1c0.3,0.3,0.5,0.8,0.8,1.4c0.2,0.6,0.3,1.2,0.3,1.8c0,1.8-0.6,3.1-1.8,4.1
		c-1.2,1-2.8,1.4-4.7,1.4c-2.1,0-3.9-0.4-5.3-1.3v-2.6c1.4,1.1,3.2,1.6,5.3,1.6c1.2,0,2.2-0.3,2.9-0.8s1.1-1.4,1.1-2.4
		c0-0.4-0.1-0.8-0.3-1.2c-0.2-0.3-0.4-0.7-0.8-1c-0.4-0.3-0.8-0.5-1.1-0.7c-0.3-0.2-0.8-0.4-1.4-0.7c-0.1-0.1-0.3-0.1-0.5-0.2
		c-0.9-0.4-1.5-0.7-1.9-0.9c-0.4-0.2-1-0.6-1.6-1.1c-0.6-0.5-1-1-1.3-1.6s-0.4-1.3-0.4-2.1c0-1.7,0.6-3,1.8-4c1.2-1,2.7-1.4,4.6-1.4
		C160.3,1.1,161.7,1.4,162.9,2z"/>
	<path class="st0" d="M178.9,18.4v2.2c-1.2,0.6-2.6,0.9-4.3,0.9c-2.3,0-4.1-0.7-5.5-2.1c-1.4-1.4-2.1-3.2-2.1-5.5
		c0-2.4,0.6-4.3,1.9-5.7c1.2-1.4,2.8-2.1,4.8-2.1c1.9,0,3.4,0.6,4.5,1.8s1.7,2.9,1.7,5.1c0,0.6,0,1.2-0.1,1.8h-10.3
		c0.2,1.5,0.7,2.6,1.7,3.4c1,0.8,2.2,1.2,3.7,1.2C176.5,19.4,177.9,19,178.9,18.4z M177.5,12.8v-0.6c0-1.2-0.3-2.2-1-3
		c-0.7-0.7-1.6-1.1-2.8-1.1c-1.1,0-2.1,0.4-2.9,1.2c-0.8,0.8-1.3,2-1.4,3.5H177.5z"/>
	<path class="st0" d="M184.9,13.9c0,1.6,0.5,3,1.5,4.1c1,1.1,2.3,1.6,4.1,1.6c1.1,0,2.2-0.3,3.2-1v2.2c-1,0.6-2.1,0.9-3.5,0.9
		c-2.4,0-4.3-0.8-5.7-2.3c-1.4-1.5-2.1-3.4-2.1-5.5c0-2.1,0.7-4,2.1-5.5c1.4-1.5,3.3-2.3,5.7-2.3c1.3,0,2.4,0.3,3.4,0.8v2.2
		c-0.9-0.6-2-0.9-3.2-0.9c-1.7,0-3.1,0.5-4.1,1.6C185.4,10.9,184.9,12.2,184.9,13.9z"/>
	<path class="st0" d="M206.7,6.3h2.3v15.1h-2.3v-2.6c-0.8,1.9-2.4,2.8-4.7,2.8c-1.5,0-2.7-0.4-3.5-1.3c-0.9-0.9-1.3-2.1-1.3-3.5V6.3
		h2.3V16c0,1.1,0.3,1.9,0.8,2.5c0.6,0.6,1.3,0.9,2.3,0.9c1.2,0,2.2-0.4,3-1.3c0.7-0.9,1.1-2,1.1-3.5V6.3z"/>
	<path class="st0" d="M215.7,6.3v2.6c0.8-1.9,2.2-2.8,4.1-2.8c0.4,0,0.6,0,0.8,0.1v2.3c-0.4-0.1-0.8-0.2-1.3-0.2
		c-1.1,0-1.9,0.5-2.6,1.5c-0.7,1-1,2.1-1,3.4v8.2h-2.3l0-15.1H215.7z"/>
	<path class="st0" d="M223.3,2.6c-0.3-0.3-0.4-0.6-0.4-1.1s0.1-0.8,0.4-1.1c0.3-0.3,0.6-0.4,1.1-0.4s0.8,0.1,1.1,0.4
		c0.3,0.3,0.4,0.7,0.4,1.1s-0.1,0.8-0.4,1.1s-0.7,0.4-1.1,0.4S223.6,2.9,223.3,2.6z M223.2,21.3V6.3h2.3v15.1H223.2z"/>
	<path class="st0" d="M233.3,8.2V17c0,1.6,0.8,2.4,2.3,2.4c0.8,0,1.5-0.2,2-0.7v2.2c-0.7,0.4-1.4,0.5-2.2,0.5c-3,0-4.5-1.5-4.5-4.5
		V8.2h-2.4V6.3h2.4V2.5h2.3v3.7h4.2v1.9H233.3z"/>
	<path class="st0" d="M245.1,20.9L239,6.3h2.6l2,5l2.6,6.8c0.2-0.5,1-2.8,2.4-6.8l1.8-5h2.5l-5.4,14.7c-0.8,2-1.7,3.5-2.7,4.3
		c-1.1,0.8-2.3,1.2-3.6,1.2c-0.5,0-0.9,0-1.2-0.1v-2.1c0.3,0.1,0.6,0.1,1,0.1C242.9,24.4,244.3,23.2,245.1,20.9z"/>
</g>
<g>
	<path class="st1" d="M61.1,25.3v4.1c0.5-0.8,1.3-1.2,2.3-1.2c0.9,0,1.7,0.3,2.3,1c0.6,0.7,0.9,1.6,0.9,2.8c0,1.1-0.3,2-0.9,2.7
		s-1.4,1.1-2.4,1.1s-1.7-0.4-2.3-1.3v1.2h-1.8V25.3H61.1z M63,34.4c0.5,0,0.9-0.2,1.3-0.6c0.3-0.4,0.5-1,0.5-1.7
		c0-0.8-0.2-1.3-0.5-1.8c-0.4-0.4-0.8-0.6-1.3-0.6c-0.5,0-0.9,0.2-1.3,0.6c-0.4,0.4-0.6,1-0.6,1.7c0,0.8,0.2,1.4,0.5,1.8
		S62.5,34.4,63,34.4z"/>
	<path class="st1" d="M70.3,35.7l-3-7.4h2l0.9,2.4c0.3,0.7,0.5,1.3,0.6,1.8c0.2,0.5,0.3,0.8,0.3,0.9l0,0.2c0.1-0.3,0.4-1.3,1-2.9
		l0.8-2.4h1.9L72,35.6c-0.8,2-1.9,3-3.4,3c-0.3,0-0.5,0-0.7-0.1v-1.5c0.2,0,0.3,0.1,0.5,0.1C69.2,37.1,69.9,36.7,70.3,35.7z"/>
	<path class="st1" d="M85.6,25.8h1.9v10h-1.9v-4.2h-4.1v4.2h-1.9v-10h1.9V30h4.1V25.8z"/>
	<path class="st1" d="M89.1,30.8c0-1.6,0.4-2.8,1.3-3.7c0.9-0.9,2-1.4,3.4-1.4c1.5,0,2.6,0.5,3.5,1.4c0.9,0.9,1.3,2.2,1.3,3.7
		c0,1.5-0.4,2.8-1.3,3.7c-0.9,0.9-2,1.4-3.4,1.4c-1.4,0-2.6-0.5-3.4-1.4S89.1,32.3,89.1,30.8z M91.1,30.8c0,1,0.2,1.9,0.7,2.5
		s1.2,0.9,2,0.9c0.8,0,1.5-0.3,2-0.9c0.5-0.6,0.7-1.4,0.7-2.5c0-1.1-0.2-1.9-0.7-2.5c-0.5-0.6-1.2-0.9-2-0.9c-0.8,0-1.5,0.3-2,0.9
		C91.4,28.9,91.1,29.7,91.1,30.8z"/>
	<path class="st1" d="M106.2,32v-6.2h1.9V32c0,1.3-0.3,2.3-1,3c-0.7,0.7-1.7,1-2.9,1c-1.2,0-2.1-0.3-2.8-1s-1.1-1.6-1.1-2.9v-6.3
		h1.9v6.3c0,0.8,0.2,1.3,0.6,1.7c0.4,0.3,0.9,0.5,1.5,0.5C105.5,34.2,106.2,33.5,106.2,32z"/>
	<path class="st1" d="M115.6,26.2V28c-0.7-0.4-1.5-0.7-2.4-0.7c-0.5,0-0.8,0.1-1.1,0.3s-0.4,0.5-0.4,0.8s0.1,0.6,0.4,0.8
		c0.3,0.2,0.7,0.4,1.3,0.7c0.4,0.2,0.7,0.3,1,0.5c0.2,0.1,0.5,0.3,0.8,0.6s0.5,0.5,0.7,0.9s0.2,0.7,0.2,1.1c0,0.9-0.3,1.6-1,2.1
		c-0.6,0.5-1.5,0.8-2.5,0.8c-1.1,0-2.1-0.2-2.8-0.6v-1.9c0.9,0.6,1.8,0.9,2.8,0.9c0.5,0,0.8-0.1,1.1-0.3c0.3-0.2,0.4-0.5,0.4-0.9
		c0-0.2,0-0.3-0.1-0.5c-0.1-0.1-0.2-0.3-0.4-0.4s-0.4-0.2-0.5-0.3c-0.1-0.1-0.3-0.2-0.7-0.3c-0.1,0-0.2-0.1-0.2-0.1
		c-0.4-0.2-0.7-0.3-0.9-0.5c-0.2-0.1-0.5-0.3-0.7-0.5c-0.3-0.2-0.5-0.5-0.6-0.8c-0.1-0.3-0.2-0.7-0.2-1.1c0-0.9,0.3-1.5,0.9-2
		c0.6-0.5,1.5-0.8,2.5-0.8C114.1,25.7,114.9,25.9,115.6,26.2z"/>
	<path class="st1" d="M119.6,34.3h4.1v1.5h-6v-10h5.9v1.5h-4v2.7h3.6v1.5h-3.6V34.3z"/>
	<path class="st1" d="M132.9,26.2v1.8c-0.8-0.4-1.6-0.7-2.5-0.7c-0.9,0-1.7,0.3-2.3,0.9c-0.6,0.6-0.9,1.4-0.9,2.5
		c0,1,0.3,1.9,0.9,2.5c0.6,0.6,1.4,0.9,2.4,0.9c0.9,0,1.7-0.2,2.4-0.7v1.9c-0.6,0.4-1.5,0.6-2.6,0.6c-1.5,0-2.7-0.5-3.7-1.4
		c-1-0.9-1.4-2.2-1.4-3.7c0-1.5,0.5-2.7,1.4-3.7c1-1,2.2-1.4,3.7-1.4C131.4,25.7,132.3,25.9,132.9,26.2z"/>
	<path class="st1" d="M134.2,30.8c0-1.6,0.4-2.8,1.3-3.7c0.9-0.9,2-1.4,3.4-1.4c1.5,0,2.6,0.5,3.5,1.4c0.9,0.9,1.3,2.2,1.3,3.7
		c0,1.5-0.4,2.8-1.3,3.7c-0.9,0.9-2,1.4-3.4,1.4c-1.4,0-2.6-0.5-3.4-1.4S134.2,32.3,134.2,30.8z M136.2,30.8c0,1,0.2,1.9,0.7,2.5
		s1.2,0.9,2,0.9c0.8,0,1.5-0.3,2-0.9c0.5-0.6,0.7-1.4,0.7-2.5c0-1.1-0.2-1.9-0.7-2.5c-0.5-0.6-1.2-0.9-2-0.9c-0.8,0-1.5,0.3-2,0.9
		C136.5,28.9,136.2,29.7,136.2,30.8z"/>
	<path class="st1" d="M145.2,35.8l0.8-10h2.1l1.4,3.6c0.2,0.6,0.5,1.2,0.7,1.8c0.2,0.6,0.4,1.1,0.4,1.4l0.1,0.5
		c0.3-1,0.7-2.2,1.3-3.7l1.4-3.6h2.1l1,10h-1.9l-0.4-3.9l-0.3-3.5c-0.4,1-0.8,2.2-1.3,3.5l-1.4,3.8h-1.3l-1.4-3.8l-1.2-3.5
		c0,0.5-0.1,1.6-0.2,3.5l-0.3,3.9H145.2z"/>
</g>
<g>
	<polygon class="st2" points="22.4,13.2 16.5,19 13.9,21.6 15.9,21.6 16.6,20.9 22.4,15.1 28.3,20.9 29,21.6 30.9,21.6 28.2,19 	"/>
	<polygon class="st2" points="18.9,21.6 25.8,21.6 22.4,18.2 	"/>
	<polygon class="st3" points="16.5,19 22.4,13.2 28.2,19 30.9,21.6 34,21.6 28.3,15.9 22.4,10.1 16.6,15.9 10.8,21.6 13.9,21.6 	"/>
	<polygon class="st3" points="22.4,15.1 16.6,20.9 15.9,21.6 18.9,21.6 22.4,18.2 25.8,21.6 29,21.6 28.3,20.9 	"/>
	<polygon class="st3" points="31,21.7 34.1,21.7 34,21.6 30.9,21.6 	"/>
	<polygon class="st3" points="13.8,21.7 13.9,21.6 10.8,21.6 10.7,21.7 	"/>
</g>
<g>
	<path class="st4" d="M0,0.6l3.9,25.9c0.4,2.4,1.6,4.5,3.6,5.9l14.9,11c0,0,0,0,0,0l14.9-11c1.9-1.4,3.2-3.6,3.6-5.9l3.9-25.9
		c0,0,0,0,0,0L0,0.6C0,0.6,0,0.6,0,0.6z M32.2,29.2l-9.9,7.2l-9.9-7.2c-1.9-1.4-3.2-3.6-3.6-5.9L6.3,5.7h32.2l-2.6,17.6
		C35.5,25.7,34.2,27.8,32.2,29.2z"/>
</g>
<g>
	<path class="st5" d="M253.5,4.1V3.7h2v0.5h-0.7v2.5h-0.5V4.1H253.5z M255.8,6.7l0.2-3h0.7l0.5,1.4l0.3,0.9c0.1-0.3,0.2-0.6,0.3-0.9
		l0.5-1.4h0.7l0.2,3h-0.5l-0.1-1.3l0-1c-0.1,0.2-0.2,0.5-0.4,1l-0.5,1.3h-0.5l-0.4-1.3l-0.3-1c0,0.2,0,0.5-0.1,1l-0.1,1.3H255.8z"/>
</g>
<g>
	<path class="st5" d="M157.2,24.1v-0.5h2v0.5h-0.7v2.5H158v-2.5H157.2z M159.5,26.6l0.2-3h0.7l0.5,1.4l0.3,0.9
		c0.1-0.3,0.2-0.6,0.3-0.9l0.5-1.4h0.7l0.2,3h-0.5l-0.1-1.3l0-1c-0.1,0.2-0.2,0.5-0.4,1l-0.5,1.3h-0.5l-0.5-1.3l-0.3-1
		c0,0.2,0,0.5-0.1,1l-0.1,1.3H159.5z"/>
</g>
</svg>
